<svg width="198" height="198" viewBox="0 0 198 198" fill="none" xmlns="http://www.w3.org/2000/svg">
  <path d="M98.5 52C137.433 52 168.994 106.334 169 106.344C169 106.344 137.436 146 98.5 146C59.5639 146 28 106.344 28 106.344C29.5902 106.344 59.5639 52 98.5 52ZM110 71C93.9837 71 81 83.9837 81 100C81 116.016 93.9837 129 110 129C126.016 129 139 116.016 139 100C139 83.9837 126.016 71 110 71ZM121 92C124.866 92 128 95.134 128 99C128 102.866 124.866 106 121 106C117.134 106 114 102.866 114 99C114 95.134 117.134 92 121 92Z" fill="white"/>
</svg>
