<svg width="370" height="134" viewBox="0 0 370 134" fill="none" xmlns="http://www.w3.org/2000/svg">
<g clip-path="url(#clip0_703_498)">
<path d="M41.0527 11.772C43.9757 3.781 56.0814 -1.92823 64.6924 0.612793L362.794 53.3569C368.073 54.9171 370.41 59.2362 368.611 64.1616L352.929 107.606C350.647 113.812 342.533 118.997 334.535 119.344L11.7031 133.651C3.23542 134.046 -1.79895 128.882 0.605469 122.322L41.0527 11.772ZM91.4043 39.2017C79.0199 38.3505 66.772 42.2158 57.1191 50.021C47.4663 57.8262 41.1234 68.9936 39.3633 81.2817C39.336 81.4724 39.2881 81.6633 39.2881 81.854C37.5917 95.7859 48.7648 107.974 62.7988 107.974H116.85C127.852 107.974 137.151 99.2129 137.199 88.2173V88.0063C137.137 75.5928 132.381 63.6623 123.887 54.6099C115.392 45.5575 103.789 40.0528 91.4043 39.2017ZM154.653 50.5845C153.75 50.5654 152.853 50.7457 152.027 51.1138C151.202 51.4818 150.468 52.0285 149.878 52.7134C149.288 53.3982 148.858 54.2049 148.616 55.0757C148.375 55.9467 148.329 56.8606 148.481 57.7515L153.298 92.3999L154.088 98.3267C154.225 99.3475 154.561 100.332 155.078 101.223C155.595 102.114 156.283 102.894 157.102 103.519C157.92 104.144 158.854 104.602 159.85 104.866C160.845 105.13 161.883 105.195 162.903 105.058L163.851 104.928C165.54 104.703 167.11 103.933 168.321 102.734C169.532 101.535 170.319 99.9735 170.561 98.2866C173.027 99.1833 175.623 99.6735 178.246 99.7378C185.147 99.9148 190.802 96.9913 193.956 92.0522C197.853 86.6431 199.051 78.5295 196.388 70.5454C195.247 66.9983 193.392 63.7216 190.938 60.9185C186.026 54.7124 178.852 50.6247 171.358 50.6245C167.734 50.5986 164.18 51.6365 161.139 53.6089C160.374 52.6874 159.421 51.9402 158.344 51.4185C157.266 50.8967 156.089 50.6126 154.892 50.5845H154.653ZM250.671 50.5845C249.767 50.5654 248.87 50.7457 248.045 51.1138C247.219 51.4818 246.485 52.0285 245.896 52.7134C245.306 53.3982 244.875 54.2049 244.634 55.0757C244.392 55.9467 244.346 56.8606 244.499 57.7515L249.315 92.3999L250.105 98.3267C250.378 100.384 251.458 102.25 253.105 103.512C254.754 104.774 256.836 105.331 258.894 105.058L259.848 104.928C261.537 104.702 263.106 103.932 264.317 102.733C265.528 101.534 266.315 99.973 266.558 98.2866C269.024 99.1833 271.62 99.6735 274.243 99.7378C281.144 99.9148 286.799 96.9913 289.946 92.0522H289.919C293.815 86.6431 294.994 78.5295 292.405 70.5454C291.265 66.9983 289.41 63.7216 286.955 60.9185C282.043 54.7124 274.87 50.6246 267.376 50.6245C263.751 50.5986 260.198 51.6365 257.156 53.6089C256.392 52.6874 255.439 51.9402 254.361 51.4185C253.284 50.8967 252.106 50.6126 250.909 50.5845H250.671ZM215.334 50.5845C206.478 50.5845 199.521 56.1703 196.578 64.4272C196.477 64.7076 196.436 65.0069 196.46 65.3042C196.483 65.6014 196.571 65.89 196.715 66.1509C198.677 69.7281 199.966 73.6356 200.517 77.6782C200.999 81.1436 200.851 84.6676 200.08 88.0806C199.925 88.7485 199.911 89.4417 200.036 90.1157C200.162 90.7897 200.425 91.431 200.81 91.9985C206.005 99.6586 214.092 104.766 222.556 104.771C235.601 104.762 244.572 92.6401 242.584 77.6782C240.595 62.7109 228.394 50.5846 215.334 50.5845ZM311.324 50.5845C302.468 50.5845 295.511 56.1703 292.562 64.4272C292.463 64.7084 292.425 65.0073 292.449 65.3042C292.474 65.6012 292.561 65.8898 292.705 66.1509C294.667 69.7281 295.956 73.6356 296.507 77.6782C296.987 81.1441 296.836 84.6681 296.063 88.0806C295.91 88.749 295.896 89.4426 296.022 90.1167C296.149 90.7907 296.414 91.4315 296.8 91.9985C301.993 99.6559 310.077 104.762 318.537 104.771C331.576 104.755 340.562 92.6357 338.574 77.6782C336.585 62.7109 324.384 50.5846 311.324 50.5845ZM70.9258 54.522C71.8524 68.0653 79.939 75.7769 89.79 75.7769C99.314 75.7767 107.155 68.7327 108.518 55.8364C113.654 61.0455 118.072 66.918 121.652 73.2974C121.606 73.3544 107.017 91.2212 89.0264 91.2212C71.0413 91.2209 56.4567 73.3652 56.4014 73.2974C56.4258 73.2518 62.1901 62.5166 70.9258 54.522ZM217.915 68.0991C220.885 68.0991 223.638 70.6204 224.047 73.6997L224.578 77.6987C224.987 80.7847 222.916 83.3052 219.952 83.3052C216.989 83.3052 214.229 80.7847 213.82 77.6987L213.282 73.6997C212.873 70.6204 214.945 68.0991 217.915 68.0991ZM313.886 68.0991C316.849 68.0991 319.609 70.6204 320.018 73.6997L320.556 77.6987C320.964 80.7846 318.893 83.3051 315.923 83.3052C312.953 83.3052 310.2 80.7847 309.791 77.6987L309.253 73.6997C308.844 70.6204 310.922 68.0991 313.886 68.0991ZM173.619 66.478C175.023 66.5202 176.368 67.0499 177.424 67.9761C178.479 68.9023 179.179 70.167 179.403 71.5532L179.907 75.1841C180.02 75.8157 179.991 76.4647 179.821 77.0835C179.652 77.7023 179.347 78.2762 178.928 78.7622C178.509 79.2483 177.986 79.6349 177.399 79.894C176.813 80.153 176.175 80.2782 175.534 80.2603C174.131 80.2191 172.786 79.6887 171.731 78.7622C170.677 77.8357 169.978 76.5703 169.757 75.1841L169.253 71.5532C169.139 70.9221 169.167 70.2735 169.336 69.6548C169.505 69.036 169.809 68.4623 170.228 67.9761C170.646 67.4899 171.167 67.1024 171.754 66.8433C172.341 66.5842 172.978 66.4598 173.619 66.478ZM269.576 66.478C270.979 66.5191 272.324 67.0486 273.379 67.9751C274.433 68.9016 275.132 70.167 275.354 71.5532L275.857 75.1841C275.971 75.8154 275.943 76.4646 275.774 77.0835C275.606 77.7023 275.3 78.2751 274.882 78.7612C274.463 79.2475 273.942 79.6349 273.355 79.894C272.769 80.1531 272.131 80.2775 271.49 80.2593C270.087 80.2171 268.742 79.6874 267.687 78.7612C266.631 77.835 265.93 76.5703 265.706 75.1841L265.202 71.5532C265.09 70.9215 265.12 70.2726 265.289 69.6538C265.459 69.0351 265.764 68.4621 266.183 67.9761C266.601 67.4902 267.123 67.1033 267.71 66.8442C268.297 66.5851 268.935 66.46 269.576 66.478ZM87.2158 56.7378C88.0872 56.3769 89.0466 56.2823 89.9717 56.4663C90.8965 56.6503 91.7463 57.1043 92.4131 57.771C93.08 58.4379 93.5338 59.2883 93.7178 60.2134C93.9017 61.1383 93.8081 62.097 93.4473 62.9683C93.0863 63.8397 92.4747 64.5849 91.6904 65.1089C90.9062 65.6329 89.9842 65.9126 89.041 65.9126C87.7764 65.9126 86.5633 65.4103 85.6689 64.5161C84.7747 63.6219 84.2726 62.4087 84.2725 61.144C84.2725 60.2009 84.5522 59.2779 85.0762 58.4937C85.6001 57.7097 86.3447 57.0987 87.2158 56.7378ZM67.1445 12.3853C64.638 12.3871 62.2347 13.3847 60.4629 15.1577C58.6911 16.9308 57.6954 19.3347 57.6953 21.8413C57.6953 23.7117 58.2508 25.5401 59.29 27.0952C60.3293 28.6503 61.806 29.8631 63.5342 30.5786C65.2624 31.2941 67.1646 31.4811 68.999 31.1157C70.8335 30.7503 72.5187 29.849 73.8408 28.5259C75.163 27.2028 76.0627 25.5168 76.4268 23.6821C76.7908 21.8474 76.6025 19.946 75.8857 18.2183C75.169 16.4906 73.9562 15.0143 72.4004 13.9761C70.8445 12.9379 69.015 12.3839 67.1445 12.3853Z" fill="black"/>
</g>
<defs>
<clipPath id="clip0_703_498">
<rect width="369.212" height="133.698" fill="white"/>
</clipPath>
</defs>
</svg>
